# Blender 5.0.1
# www.blender.org
mtllib corner.mtl
o Floor01
v 2.046620 0.182397 2.000000
v 2.046620 0.182397 -2.000000
v 2.046620 -0.182397 2.000000
v 2.046620 -0.182397 -2.000000
v -1.953379 0.182397 2.000000
v -1.953379 0.182397 -2.000000
v -1.953379 -0.182397 2.000000
v -1.953379 -0.182397 -2.000000
vn -0.0000 -0.0000 1.0000
vn -0.0000 -1.0000 -0.0000
vn -1.0000 -0.0000 -0.0000
vn -0.0000 -0.0000 -1.0000
vn 1.0000 -0.0000 -0.0000
vn -0.0000 1.0000 -0.0000
vt 0.750000 0.000000
vt 0.750000 1.000000
vt 0.500001 1.000000
vt 0.500000 0.000000
vt 1.000000 0.000000
vt 1.000000 1.000000
vt 0.000000 1.000000
vt 0.000000 0.000000
vt 0.250000 0.000000
vt 0.250000 1.000000
vt 0.000000 1.000000
vt -0.000000 0.000000
vt 0.250001 1.000000
vt 0.250000 0.000000
vt 0.500000 0.000000
vt 0.500000 1.000000
vt 1.000000 0.000000
vt 1.000000 1.000000
vt 0.750000 1.000000
vt 0.750000 0.000000
s 0
usemtl Floor01
f 1/1/1 5/2/1 7/3/1 3/4/1
f 4/5/2 3/6/2 7/7/2 8/8/2
f 8/9/3 7/10/3 5/11/3 6/12/3
f 6/13/4 2/14/4 4/15/4 8/16/4
f 2/17/5 1/18/5 3/19/5 4/20/5
f 6/5/6 5/6/6 1/7/6 2/8/6
o Wall
v 2.010738 3.819921 2.006664
v 2.010738 3.819921 -1.993336
v 2.375528 3.821544 2.006664
v 2.375529 3.821545 -1.993336
v 2.028542 -0.180039 2.006664
v 2.028543 -0.180039 -1.993336
v 2.393333 -0.178416 2.006664
v 2.393333 -0.178415 -1.993336
vn -0.0000 -0.0000 1.0000
vn 1.0000 0.0045 -0.0000
vn 0.0045 -1.0000 -0.0000
vn -0.0000 -0.0000 -1.0000
vn -0.0045 1.0000 -0.0000
vn -1.0000 -0.0045 -0.0000
vt 0.750000 0.000000
vt 0.750000 1.000000
vt 0.500001 1.000000
vt 0.500000 0.000000
vt 1.000000 0.000000
vt 1.000000 1.000000
vt 0.000000 1.000000
vt 0.000000 0.000000
vt 0.250000 0.000000
vt 0.250000 1.000000
vt 0.000000 1.000000
vt -0.000000 0.000000
vt 0.250001 1.000000
vt 0.250000 0.000000
vt 0.500000 0.000000
vt 0.500000 1.000000
vt 1.000000 0.000000
vt 1.000000 1.000000
vt 0.750000 1.000000
vt 0.750000 0.000000
s 0
usemtl Floor01
f 9/21/7 13/22/7 15/23/7 11/24/7
f 12/25/8 11/26/8 15/27/8 16/28/8
f 16/29/9 15/30/9 13/31/9 14/32/9
f 14/33/10 10/34/10 12/35/10 16/36/10
f 10/37/11 9/38/11 11/39/11 12/40/11
f 14/25/12 13/26/12 9/27/12 10/28/12
o Wall.001
v 2.016286 3.819921 -1.700863
v -1.983713 3.819921 -1.699651
v 2.016176 3.821544 -2.065654
v -1.983824 3.821545 -2.064441
v 2.016280 -0.180039 -1.718668
v -1.983719 -0.180039 -1.717455
v 2.016170 -0.178416 -2.083458
v -1.983830 -0.178415 -2.082245
vn 1.0000 -0.0000 -0.0003
vn -0.0003 0.0045 -1.0000
vn -0.0000 -1.0000 -0.0045
vn -1.0000 -0.0000 0.0003
vn -0.0000 1.0000 0.0045
vn 0.0003 -0.0045 1.0000
vt 0.750000 0.000000
vt 0.750000 1.000000
vt 0.500001 1.000000
vt 0.500000 0.000000
vt 1.000000 0.000000
vt 1.000000 1.000000
vt 0.000000 1.000000
vt 0.000000 0.000000
vt 0.250000 0.000000
vt 0.250000 1.000000
vt 0.000000 1.000000
vt -0.000000 0.000000
vt 0.250001 1.000000
vt 0.250000 0.000000
vt 0.500000 0.000000
vt 0.500000 1.000000
vt 1.000000 0.000000
vt 1.000000 1.000000
vt 0.750000 1.000000
vt 0.750000 0.000000
s 0
usemtl Floor01
f 17/41/13 21/42/13 23/43/13 19/44/13
f 20/45/14 19/46/14 23/47/14 24/48/14
f 24/49/15 23/50/15 21/51/15 22/52/15
f 22/53/16 18/54/16 20/55/16 24/56/16
f 18/57/17 17/58/17 19/59/17 20/60/17
f 22/45/18 21/46/18 17/47/18 18/48/18
