# Blender v2.90.0 OBJ File: 'Bench01.blend'
# www.blender.org
mtllib Bench01.mtl
o Bench01_Cube.001
v -1.845525 0.095810 0.492364
v -1.845525 0.527716 0.492364
v -1.845525 0.095810 -0.492364
v -1.845525 0.527716 -0.492364
v -1.276322 0.095810 0.492364
v -1.276322 0.527716 -0.492364
v -1.276322 0.527716 0.492364
v -1.276322 0.095810 -0.492364
v -1.845525 -0.623525 -0.492364
v -1.845525 -0.623525 0.492364
v -1.276322 -0.623525 -0.492364
v -1.276322 -0.623525 0.492364
v 1.845525 0.095810 0.492364
v 1.845525 0.527716 0.492364
v 1.845525 0.095810 -0.492364
v 1.845525 0.527716 -0.492364
v 1.276322 0.095810 0.492364
v 1.276322 0.527716 -0.492364
v 1.276322 0.527716 0.492364
v 1.276322 0.095810 -0.492364
v 1.845525 -0.623525 -0.492364
v 1.845525 -0.623525 0.492364
v 1.276322 -0.623525 -0.492364
v 1.276322 -0.623525 0.492364
vt -0.060830 -0.226423
vt -0.494373 -0.429890
vt -0.060830 -0.429890
vt 1.148547 0.332187
vt 0.897946 0.128719
vt 1.148547 0.128719
vt -0.225899 0.332187
vt -0.225899 0.128720
vt 0.897946 0.338291
vt 1.148547 0.541758
vt 0.897946 0.541758
vt 0.845276 -0.146501
vt 1.278820 0.121645
vt 0.845276 0.121645
vt 1.148547 1.029583
vt 0.897946 1.493479
vt 0.897946 1.029583
vt 0.748191 0.978301
vt 0.314647 1.317174
vt 0.314647 0.978302
vt -0.225899 0.541759
vt -0.484019 0.551769
vt 0.639827 1.015666
vt -0.484019 1.015666
vt -0.227831 0.612965
vt -0.495978 0.929665
vt -0.495978 0.612965
vt 0.750018 -0.107547
vt 1.018164 -0.424246
vt 1.018164 -0.107547
vt 1.194741 0.978301
vt 0.761197 1.317174
vt 0.761197 0.978301
vt 0.832270 -0.429890
vt 0.398727 -0.226423
vt 0.398727 -0.429890
vt -0.476501 0.332187
vt -0.476501 0.128720
vt -0.476501 0.541759
vt -0.225899 0.338291
vt 1.278820 -0.422692
vt 0.845276 -0.154546
vt 0.845276 -0.422692
vt -0.225899 1.493480
vt -0.476501 1.029583
vt -0.225899 1.029583
vt 0.037180 0.420217
vt -0.396364 0.081345
vt 0.037180 0.081345
vt 1.227831 -0.493935
vt 1.495978 -0.177236
vt 1.227831 -0.177235
vt 0.272204 -0.493935
vt 0.540350 -0.177236
vt 0.272204 -0.177236
vt 0.167482 0.554376
vt -0.266062 0.215504
vt 0.167482 0.215504
vt -0.494373 -0.226423
vt 0.897946 0.332187
vt 1.148547 0.338291
vt 1.278820 -0.146501
vt 1.148547 1.493479
vt 0.748191 1.317174
vt 0.639827 0.551769
vt -0.227831 0.929665
vt 0.750018 -0.424246
vt 1.194741 1.317173
vt 0.832270 -0.226423
vt -0.476501 0.338291
vt 1.278820 -0.154546
vt -0.476501 1.493480
vt -0.396364 0.420217
vt 1.495978 -0.493935
vt 0.540350 -0.493935
vt -0.266062 0.554376
vn -1.0000 0.0000 0.0000
vn 0.0000 0.0000 -1.0000
vn 0.0000 0.0000 1.0000
vn 0.0000 -1.0000 0.0000
vn 0.0000 1.0000 0.0000
vn 1.0000 0.0000 0.0000
usemtl Wood_Bench01
s off
f 2/1/1 3/2/1 1/3/1
f 4/4/2 8/5/2 3/6/2
f 8/5/2 18/7/2 20/8/2
f 7/9/3 1/10/3 5/11/3
f 11/12/4 10/13/4 9/14/4
f 4/15/5 7/16/5 6/17/5
f 5/18/6 11/19/6 8/20/6
f 17/21/3 7/9/3 5/11/3
f 17/22/4 8/23/4 20/24/4
f 8/25/2 9/26/2 3/27/2
f 1/28/3 12/29/3 5/30/3
f 3/31/1 10/32/1 1/33/1
f 15/34/6 14/35/6 13/36/6
f 20/8/2 16/37/2 15/38/2
f 13/39/3 19/40/3 17/21/3
f 22/41/4 23/42/4 21/43/4
f 19/44/5 16/45/5 18/46/5
f 23/47/1 17/48/1 20/49/1
f 21/50/2 20/51/2 15/52/2
f 24/53/3 13/54/3 17/55/3
f 22/56/6 15/57/6 13/58/6
f 19/44/5 6/17/5 7/16/5
f 2/1/1 4/59/1 3/2/1
f 4/4/2 6/60/2 8/5/2
f 8/5/2 6/60/2 18/7/2
f 7/9/3 2/61/3 1/10/3
f 11/12/4 12/62/4 10/13/4
f 4/15/5 2/63/5 7/16/5
f 5/18/6 12/64/6 11/19/6
f 17/21/3 19/40/3 7/9/3
f 17/22/4 5/65/4 8/23/4
f 8/25/2 11/66/2 9/26/2
f 1/28/3 10/67/3 12/29/3
f 3/31/1 9/68/1 10/32/1
f 15/34/6 16/69/6 14/35/6
f 20/8/2 18/7/2 16/37/2
f 13/39/3 14/70/3 19/40/3
f 22/41/4 24/71/4 23/42/4
f 19/44/5 14/72/5 16/45/5
f 23/47/1 24/73/1 17/48/1
f 21/50/2 23/74/2 20/51/2
f 24/53/3 22/75/3 13/54/3
f 22/56/6 21/76/6 15/57/6
f 19/44/5 18/46/5 6/17/5
