# Blender v2.90.0 OBJ File: 'BookshelfLarge.blend'
# www.blender.org
mtllib BookshelfLarge.mtl
o BookShelf_Large_Cube
v 1.600000 1.600000 -0.439212
v 1.600000 -1.600000 -0.439212
v 1.600000 1.600000 0.439212
v 1.600000 -1.600000 0.439212
v -1.600000 1.600000 -0.439212
v -1.600000 -1.600000 -0.439212
v -1.600000 1.600000 0.439212
v -1.600000 -1.600000 0.439212
vt 1.000000 1.000000
vt 0.000000 0.000000
vt 1.000000 0.000000
vt 1.000000 1.000000
vt 0.000000 0.000000
vt 1.000000 0.000000
vt 0.000000 1.000000
vt 0.000000 1.000000
vt 0.335821 1.000000
vt 0.085821 0.000000
vt 0.335821 0.000000
vt 0.250000 1.000000
vt -0.000000 0.000000
vt 0.250000 0.000000
vt 0.691439 0.000000
vt 0.941439 1.000000
vt 0.691439 1.000000
vt 1.000000 1.000000
vt 0.750000 0.000000
vt 1.000000 0.000000
vt 0.085822 1.000000
vt 0.000000 1.000000
vt 0.941439 0.000000
vt 0.750000 1.000000
vn 0.0000 0.0000 1.0000
vn 0.0000 0.0000 -1.0000
vn 0.0000 1.0000 0.0000
vn -1.0000 0.0000 0.0000
vn 0.0000 -1.0000 0.0000
vn 1.0000 0.0000 0.0000
usemtl Books_BookshelfLarge
s off
f 3/1/1 8/2/1 4/3/1
f 5/4/2 2/5/2 6/6/2
f 3/1/1 7/7/1 8/2/1
f 5/4/2 1/8/2 2/5/2
usemtl Wood_BookshelfLarge
f 5/9/3 3/10/3 1/11/3
f 7/12/4 6/13/4 8/14/4
f 2/15/5 8/16/5 6/17/5
f 1/18/6 4/19/6 2/20/6
f 5/9/3 7/21/3 3/10/3
f 7/12/4 5/22/4 6/13/4
f 2/15/5 4/23/5 8/16/5
f 1/18/6 3/24/6 4/19/6
