# Blender v2.90.0 OBJ File: 'Ceiling02.blend'
# www.blender.org
mtllib Ceiling02.mtl
o Ceiling02_Cube.004
v 2.000000 0.159883 -4.138738
v 2.000000 -0.098066 -3.880789
v -2.000000 0.159883 -4.138738
v -2.000000 -0.098066 -3.880789
v 2.000000 -0.554878 -4.364893
v 2.000000 -0.554878 -4.000099
v -2.000000 -0.554878 -4.364893
v -2.000000 -0.554878 -4.000099
v 2.000000 0.159883 4.138738
v 2.000000 -0.098066 3.880789
v -2.000000 0.159883 4.138738
v -2.000000 -0.098066 3.880789
v 2.000000 -0.554878 4.364893
v 2.000000 -0.554878 4.000099
v -2.000000 -0.554878 4.364893
v -2.000000 -0.554878 4.000099
v 2.000000 0.918961 0.000000
v -2.000000 0.918961 0.000000
v 2.000000 1.176909 0.000000
v -2.000000 1.176909 0.000000
vt 0.309768 0.000000
vt 0.280731 0.881884
vt 0.145499 0.888221
vt 0.486090 0.981747
vt 1.046686 0.006749
vt 1.046686 0.981746
vt 0.176368 0.697927
vt 0.224095 0.624511
vt 0.227641 0.684035
vt 0.664749 0.118116
vt 0.693787 1.000000
vt 0.529517 0.111779
vt 0.468945 0.697927
vt 0.402071 0.192979
vt 0.468944 0.192979
vt 0.468945 0.192979
vt 0.575130 0.697927
vt 0.468945 0.697927
vt 0.176368 0.414013
vt 0.224095 0.487428
vt 0.176368 0.508651
vt 0.227641 0.192979
vt 0.281419 0.697927
vt 0.227641 0.697927
vt 0.493799 1.005052
vt 1.071170 0.019529
vt 1.071170 1.005052
vt 0.280731 0.881884
vt 0.145499 0.888221
vt 1.046686 0.006749
vt 1.046686 0.981746
vt 0.224095 0.392790
vt 0.176368 0.319374
vt 0.227641 0.333266
vt 0.664749 0.118116
vt 0.768037 0.970879
vt 0.335198 0.697927
vt 0.402071 0.192979
vt 0.402071 0.697927
vt 0.575131 0.697927
vt 0.681316 0.192979
vt 0.681316 0.697927
vt 0.176368 0.603289
vt 0.224095 0.529873
vt 0.227641 0.589397
vt 0.281419 0.697927
vt 0.335198 0.192979
vt 0.335198 0.697927
vt -0.083572 0.019529
vt -0.083572 1.005052
vt 0.384018 0.029121
vt 0.486090 0.006750
vt 0.176368 0.603289
vt 0.402071 0.697927
vt 0.575130 0.192979
vt 0.227641 0.427904
vt 0.281419 0.192979
vt 0.493799 0.019529
vt 0.176368 0.414013
vt 0.529517 0.111779
vt 0.335198 0.192979
vt 0.575130 0.192979
vt 0.176368 0.508651
vt 0.281419 0.192979
vn 1.0000 -0.0000 0.0000
vn 0.0000 0.9711 -0.2386
vn -1.0000 0.0000 0.0000
vn 0.0000 -0.2527 0.9675
vn 0.0000 0.3017 -0.9534
vn 0.0000 -1.0000 0.0000
vn 0.0000 -0.9673 0.2535
vn 0.0000 0.9711 0.2386
vn 0.0000 -0.2527 -0.9675
vn 0.0000 0.3017 0.9534
vn 0.0000 -0.9673 -0.2535
usemtl Ceiling02
s off
f 19/1/1 2/2/1 1/3/1
f 20/4/2 1/5/2 3/6/2
f 5/7/1 2/8/1 6/9/1
f 4/10/3 20/11/3 3/12/3
f 6/13/4 4/14/4 8/15/4
f 7/16/5 1/17/5 5/18/5
f 7/19/3 4/20/3 3/21/3
f 8/22/6 5/23/6 6/24/6
f 17/25/7 4/26/7 2/27/7
f 10/28/1 19/1/1 9/29/1
f 9/30/8 20/4/8 11/31/8
f 10/32/1 13/33/1 14/34/1
f 12/35/3 20/11/3 18/36/3
f 12/37/9 14/38/9 16/39/9
f 9/40/10 15/41/10 13/42/10
f 15/43/3 12/44/3 16/45/3
f 13/46/6 16/47/6 14/48/6
f 12/49/11 17/25/11 10/50/11
f 19/1/1 17/51/1 2/2/1
f 20/4/2 19/52/2 1/5/2
f 5/7/1 1/53/1 2/8/1
f 4/10/3 18/36/3 20/11/3
f 6/13/4 2/54/4 4/14/4
f 7/16/5 3/55/5 1/17/5
f 7/19/3 8/56/3 4/20/3
f 8/22/6 7/57/6 5/23/6
f 17/25/7 18/58/7 4/26/7
f 10/28/1 17/51/1 19/1/1
f 9/30/8 19/52/8 20/4/8
f 10/32/1 9/59/1 13/33/1
f 12/35/3 11/60/3 20/11/3
f 12/37/9 10/61/9 14/38/9
f 9/40/10 11/62/10 15/41/10
f 15/43/3 11/63/3 12/44/3
f 13/46/6 15/64/6 16/47/6
f 12/49/11 18/58/11 17/25/11
