# Blender v2.90.0 OBJ File: 'Door02.blend'
# www.blender.org
mtllib Door02.mtl
o Door02_Cube.001
v -1.000000 -1.836221 0.138834
v -1.000000 -0.191123 0.138834
v -1.000000 -1.836221 -0.138834
v -1.000000 -0.191123 -0.138834
v 1.000000 -1.836221 0.138834
v 1.000000 -0.191123 0.138834
v 1.000000 -1.836221 -0.138834
v 1.000000 -0.191123 -0.138834
v 0.000000 -1.836221 -0.138834
v 0.000000 0.641496 -0.138834
v 0.000000 -1.836221 0.138834
v 0.000000 0.641496 0.138834
v 0.500000 0.408765 -0.138834
v 0.500000 -1.836221 0.138834
v 0.500000 -1.836221 -0.138834
v 0.500000 0.408765 0.138834
v -0.500000 -1.836221 -0.138834
v -0.500000 0.408765 0.138834
v -0.500000 0.408765 -0.138834
v -0.500000 -1.836221 0.138834
vt 0.106834 0.499418
vt 0.219856 0.016176
vt 0.271953 0.070014
vt 0.709326 0.026069
vt 0.954924 0.834133
vt 0.954924 0.026069
vt 0.957450 0.705156
vt 0.868401 0.145559
vt 0.957450 0.043733
vt 0.218131 0.026069
vt -0.027467 0.834133
vt -0.027467 0.026069
vt 0.637148 0.109890
vt 0.656595 0.000098
vt 0.000098 0.511182
vt 0.217593 0.755897
vt 0.124066 0.843538
vt 0.359224 0.999902
vt 0.599109 0.843858
vt 0.656144 0.970327
vt 0.471003 0.008643
vt 0.352477 0.075338
vt 0.354006 0.005964
vt 0.709326 1.128796
vt 0.463728 0.026069
vt 0.709326 0.026069
vt 0.218131 1.128796
vt 0.463728 0.026069
vt 0.218131 0.026069
vt 0.954924 0.834133
vt 0.954924 0.026069
vt 0.835031 0.648521
vt 0.462545 0.087102
vt 0.709326 1.128796
vt -0.027467 0.834133
vt -0.027467 0.026069
vt 0.381722 0.869446
vt 0.218131 1.128796
vt 0.463728 1.243113
vt 0.463728 1.243113
vn -1.0000 0.0000 0.0000
vn 0.0000 0.0000 -1.0000
vn 1.0000 0.0000 0.0000
vn 0.0000 0.0000 1.0000
vn 0.0000 -1.0000 0.0000
vn -0.7682 0.6403 0.0000
vn 0.4220 0.9066 0.0000
vn 0.7682 0.6403 0.0000
vn -0.4220 0.9066 0.0000
usemtl WoodDoor02
s off
f 2/1/1 3/2/1 1/3/1
f 15/4/2 8/5/2 7/6/2
f 8/7/3 5/8/3 7/9/3
f 20/10/4 2/11/4 1/12/4
f 7/9/5 14/13/5 15/14/5
f 4/15/6 18/16/6 19/17/6
f 10/18/7 16/19/7 13/20/7
f 9/21/5 20/22/5 17/23/5
f 16/24/4 11/25/4 14/26/4
f 19/27/2 9/28/2 17/29/2
f 6/30/4 14/26/4 5/31/4
f 13/20/8 6/32/8 8/7/8
f 15/14/5 11/33/5 9/21/5
f 9/28/2 13/34/2 15/4/2
f 4/35/2 17/29/2 3/36/2
f 17/23/5 1/3/5 3/2/5
f 19/17/9 12/37/9 10/18/9
f 11/25/4 18/38/4 20/10/4
f 2/1/1 4/15/1 3/2/1
f 15/4/2 13/34/2 8/5/2
f 8/7/3 6/32/3 5/8/3
f 20/10/4 18/38/4 2/11/4
f 7/9/5 5/8/5 14/13/5
f 4/15/6 2/1/6 18/16/6
f 10/18/7 12/37/7 16/19/7
f 9/21/5 11/33/5 20/22/5
f 16/24/4 12/39/4 11/25/4
f 19/27/2 10/40/2 9/28/2
f 6/30/4 16/24/4 14/26/4
f 13/20/8 16/19/8 6/32/8
f 15/14/5 14/13/5 11/33/5
f 9/28/2 10/40/2 13/34/2
f 4/35/2 19/27/2 17/29/2
f 17/23/5 20/22/5 1/3/5
f 19/17/9 18/16/9 12/37/9
f 11/25/4 12/39/4 18/38/4
o WallDoor02_Cube.002
v 1.978979 2.131282 -0.179202
v 1.978979 -1.868718 -0.179202
v 1.978979 2.131282 0.185592
v 1.978979 -1.868718 0.185592
v -2.021021 2.131282 -0.179202
v -2.021021 -1.868718 -0.179202
v -2.021021 2.131282 0.185592
v -2.021021 -1.868718 0.185592
v 1.178979 -1.868718 -0.179202
v 1.178979 2.131282 0.185592
v 1.178979 -1.868718 0.185592
v 1.178979 2.131282 -0.179202
v -1.221021 -1.868718 -0.179202
v -1.221021 2.131282 0.185592
v -1.221021 -1.868718 0.185592
v -1.221021 2.131282 -0.179202
v 1.978979 1.131282 -0.179202
v -2.021021 1.131282 0.185592
v 1.978979 1.131282 0.185592
v -2.021021 1.131282 -0.179202
v 1.178979 1.131282 -0.179202
v 1.178979 1.131282 0.185592
v -1.221021 1.131282 -0.179202
v -1.221021 1.131282 0.185592
v 0.978979 -1.868718 -0.179202
v -1.021021 -1.868718 0.185592
v 0.840845 -1.868718 -0.127806
v 0.266267 -1.868718 -0.040472
v -0.308310 -1.868718 0.046862
v -0.021021 0.619166 -0.179202
v -0.021021 0.619166 0.185592
v 0.478979 0.386434 -0.179202
v 0.478979 0.386434 0.185592
v -0.521021 0.386434 -0.179202
v -0.521021 0.386434 0.185592
v -1.021021 -0.213454 -0.179202
v -1.021021 -0.213454 0.185592
v 0.978979 -0.213454 -0.179202
v 0.978979 -0.213454 0.185592
v 0.978979 -1.868718 0.185592
v -1.021021 -1.868718 -0.179202
vt 0.750000 1.000000
vt 0.500001 0.800000
vt 0.750000 0.800000
vt 0.200000 1.000000
vt 0.000000 0.750000
vt 0.200000 0.750000
vt 0.250000 1.000000
vt 0.000000 0.750000
vt 0.250000 0.750000
vt 0.250000 0.000000
vt 0.500000 0.200000
vt 0.250000 0.200000
vt 1.000000 1.000000
vt 0.750000 0.750000
vt 1.000000 0.750000
vt 0.200000 1.000000
vt 0.000000 0.750000
vt 0.200000 0.750000
vt 0.800000 1.000000
vt 0.800000 0.750000
vt 0.250000 0.800000
vt 0.500000 0.750000
vt 0.500000 0.800000
vt 1.000000 1.000000
vt 0.800000 0.750000
vt 1.000000 0.750000
vt 0.750000 0.200000
vt 0.500000 0.000000
vt 0.750000 0.000000
vt 0.500000 1.000000
vt 0.250001 1.000000
vt 1.000000 1.000000
vt 1.000000 0.750000
vt 0.800000 1.000000
vt 0.500000 0.200000
vt 0.800000 0.000000
vt 1.000000 0.000000
vt 0.800000 0.000000
vt 1.000000 0.000000
vt 0.000000 0.000000
vt 0.200000 0.000000
vt 0.750000 0.000000
vt 1.000000 0.000000
vt -0.000000 0.000000
vt 0.250000 0.000000
vt 0.000000 0.000000
vt 0.200000 0.000000
vt 0.500000 0.692876
vt 0.692876 0.656790
vt 0.692876 0.692876
vt 0.250000 0.250000
vt 0.500000 0.250000
vt 0.500000 0.656790
vt 0.692876 0.563776
vt 0.500000 0.656790
vt 0.307124 0.692876
vt 0.307124 0.656790
vt 0.307124 0.563776
vt 0.500000 0.307124
vt 0.500000 0.563776
vt 0.500000 0.563776
vt 0.692876 0.307124
vt 0.500001 1.000000
vt 0.000000 1.000000
vt 0.000000 1.000000
vt 0.500000 0.000000
vt 0.750000 1.000000
vt 0.000000 1.000000
vt 0.250000 0.750000
vt 0.307124 0.307124
vt 0.500000 0.307124
vt 0.871795 0.961519
vt 0.120395 0.961520
vt 0.496095 0.801185
vt 0.871794 0.962950
vt 0.120394 0.962950
vt 0.496094 0.802616
vt 0.809178 0.022270
vt 0.871794 0.022270
vt 0.809178 0.540505
vt 0.120393 0.022271
vt 0.183011 0.540506
vt 0.183010 0.022270
vt 0.652636 0.728320
vt 0.339553 0.728321
vt 0.809178 0.023702
vt 0.871794 0.023702
vt 0.809177 0.541936
vt 0.120394 0.023701
vt 0.183011 0.541936
vt 0.183010 0.023701
vt 0.652635 0.729751
vt 0.339552 0.729751
vn 0.0000 1.0000 0.0000
vn 0.0000 0.0000 1.0000
vn -1.0000 0.0000 0.0000
vn 0.0000 -1.0000 0.0000
vn 1.0000 0.0000 0.0000
vn 0.0000 0.0000 -1.0000
vn 0.4220 -0.9066 0.0000
vn 0.7682 -0.6403 0.0000
vn -0.4220 -0.9066 0.0000
vn -0.7682 -0.6403 0.0000
usemtl WallDoor02
s off
f 25/41/10 34/42/10 36/43/10
f 34/44/11 38/45/11 44/46/11
f 27/47/12 40/48/12 38/49/12
f 22/50/13 31/51/13 29/52/13
f 21/53/14 39/54/14 37/55/14
f 32/56/15 37/57/15 41/58/15
f 36/59/15 41/58/15 43/60/15
f 33/61/13 46/62/13 35/63/13
f 23/64/11 42/65/11 39/66/11
f 32/67/10 23/68/10 21/69/10
f 33/61/13 28/70/13 26/71/13
f 25/72/15 43/60/15 40/73/15
f 30/74/11 44/46/11 42/65/11
f 36/43/10 30/75/10 32/67/10
f 40/73/15 33/76/15 26/77/15
f 39/66/11 31/78/11 24/79/11
f 41/58/15 22/80/15 29/81/15
f 37/55/14 24/82/14 22/83/14
f 38/49/12 26/84/12 28/85/12
f 44/46/11 28/86/11 35/87/11
f 51/88/16 54/89/16 50/90/16
f 45/91/13 31/51/13 60/92/13
f 55/93/17 56/94/17 54/89/17
f 53/95/18 50/96/18 52/97/18
f 58/98/12 60/99/12 59/100/12
f 59/100/19 52/97/19 58/98/19
f 57/101/14 61/102/14 56/94/14
f 25/41/10 27/103/10 34/42/10
f 34/44/11 27/104/11 38/45/11
f 27/47/12 25/105/12 40/48/12
f 22/50/13 24/106/13 31/51/13
f 21/53/14 23/107/14 39/54/14
f 32/56/15 21/108/15 37/57/15
f 36/59/15 32/56/15 41/58/15
f 33/61/13 61/109/13 46/62/13
f 23/64/11 30/74/11 42/65/11
f 32/67/10 30/75/10 23/68/10
f 33/61/13 35/63/13 28/70/13
f 25/72/15 36/59/15 43/60/15
f 30/74/11 34/44/11 44/46/11
f 36/43/10 34/42/10 30/75/10
f 40/73/15 43/60/15 33/76/15
f 39/66/11 42/65/11 31/78/11
f 41/58/15 37/57/15 22/80/15
f 37/55/14 39/54/14 24/82/14
f 38/49/12 40/48/12 26/84/12
f 44/46/11 38/45/11 28/86/11
f 51/88/16 55/93/16 54/89/16
f 45/91/13 29/52/13 31/51/13
f 55/93/17 57/101/17 56/94/17
f 53/95/18 51/88/18 50/96/18
f 58/98/12 45/110/12 60/99/12
f 59/100/19 53/95/19 52/97/19
f 57/101/14 46/111/14 61/102/14
usemtl OrnamentDoor02
f 42/112/11 44/113/11 51/114/11
f 43/115/15 41/116/15 50/117/15
f 60/118/11 31/119/11 59/120/11
f 31/119/11 42/112/11 59/120/11
f 44/113/11 35/121/11 57/122/11
f 35/121/11 46/123/11 57/122/11
f 53/124/11 59/120/11 42/112/11
f 44/113/11 57/122/11 55/125/11
f 51/114/11 53/124/11 42/112/11
f 44/113/11 55/125/11 51/114/11
f 61/126/15 33/127/15 56/128/15
f 33/127/15 43/115/15 56/128/15
f 41/116/15 29/129/15 58/130/15
f 29/129/15 45/131/15 58/130/15
f 54/132/15 56/128/15 43/115/15
f 41/116/15 58/130/15 52/133/15
f 50/117/15 54/132/15 43/115/15
f 41/116/15 52/133/15 50/117/15
