# Blender v2.90.0 OBJ File: 'HandrailStairs.blend'
# www.blender.org
mtllib HandrailStairs01.mtl
o HandrailStairs01_Cube.002
v 0.946130 -0.559697 -0.500000
v 0.946130 0.559697 -0.500000
v 0.946130 -0.559697 0.500000
v 0.946130 0.559697 0.500000
v -0.946130 0.559697 -0.500000
v -0.946130 -0.559697 -0.500000
v -0.946130 -0.559697 0.500000
v -0.946130 0.559697 0.500000
vt 0.540800 0.884981
vt 0.427950 0.997831
vt 0.427950 0.884981
vt 0.265765 0.677594
vt 0.699078 0.244281
vt 0.699078 0.677594
vt 0.718628 0.257935
vt 0.234497 0.742065
vt 0.234497 0.257935
vt 0.718628 0.257935
vt 0.234497 0.742065
vt 0.234497 0.257935
vt 0.842720 0.999731
vt 0.722884 0.906519
vt 0.722884 0.999731
vt 0.265765 0.244281
vt 0.699078 0.677594
vt 0.265766 0.677594
vt 0.540800 0.997831
vt 0.265765 0.244281
vt 0.718628 0.742065
vt 0.718628 0.742065
vt 0.842720 0.906519
vt 0.699078 0.244281
vn 0.0000 1.0000 0.0000
vn -1.0000 0.0000 0.0000
vn -0.0000 0.0000 -1.0000
vn 0.0000 0.0000 1.0000
vn 0.0000 -1.0000 0.0000
vn 1.0000 0.0000 0.0000
usemtl Handrail_Stairs01
s off
f 5/1/1 4/2/1 2/3/1
f 7/4/2 5/5/2 6/6/2
f 6/7/3 2/8/3 1/9/3
f 8/10/4 3/11/4 4/12/4
f 7/13/5 1/14/5 3/15/5
f 2/16/6 3/17/6 1/18/6
f 5/1/1 8/19/1 4/2/1
f 7/4/2 8/20/2 5/5/2
f 6/7/3 5/21/3 2/8/3
f 8/10/4 7/22/4 3/11/4
f 7/13/5 6/23/5 1/14/5
f 2/16/6 4/24/6 3/17/6
