# Blender v2.90.0 OBJ File: 'KnightPlace.blend'
# www.blender.org
mtllib KnightPlace.mtl
o KnightPlace_Cube
v -1.000000 0.600000 -0.111597
v 1.000000 0.600000 -0.111597
v 0.000000 1.700000 -0.111597
v -0.554890 1.252383 -0.111597
v 0.554890 1.252383 -0.111597
v 2.000000 2.000000 -0.182397
v 2.000000 -2.000000 -0.182397
v 2.000000 2.000000 0.182397
v 2.000000 -2.000000 0.182397
v -2.000000 2.000000 -0.182397
v -2.000000 -2.000000 -0.182397
v -2.000000 2.000000 0.182397
v -2.000000 -2.000000 0.182397
v 0.000000 -2.000000 -0.111597
v 0.554890 1.252383 0.182397
v 0.000000 1.700000 0.182397
v -0.554890 1.252383 0.182397
v -0.501885 -2.000000 -0.111597
v -1.000000 0.600000 0.182397
v 0.501885 -2.000000 -0.111597
v 1.000000 0.600000 0.182397
v 1.000000 -2.000000 -0.111597
v 1.000000 -2.000000 0.182397
v -1.000000 -2.000000 -0.111597
v -1.000000 -2.000000 0.182397
vt 0.523438 0.756228
vt 0.905251 0.621586
vt 0.905250 0.756228
vt 0.523438 0.756228
vt 0.141625 0.848610
vt 0.141625 0.756228
vt 0.523438 0.848610
vt 0.905250 0.848610
vt 0.523437 0.621586
vt 0.141625 0.621586
vt 0.750000 1.000000
vt 0.500000 0.000000
vt 0.750000 0.000000
vt 1.000000 1.000000
vt 0.000000 1.000000
vt 0.500000 0.925000
vt 0.250000 1.000000
vt -0.000000 0.000000
vt 0.250000 0.000000
vt 0.250001 1.000000
vt 0.250000 0.000000
vt 0.298521 0.500000
vt 1.000000 1.000000
vt 0.750000 0.000000
vt 1.000000 0.000000
vt 1.000000 1.000000
vt 0.000000 0.000000
vt 1.000000 0.000000
vt 0.528729 0.767045
vt 0.412657 0.086709
vt 0.517642 0.086709
vt 0.621838 0.630579
vt 0.621838 0.086709
vt 0.296585 0.767045
vt 0.307672 0.086709
vt 0.523437 0.084984
vt 0.523438 0.084984
vt 0.905251 0.084984
vt 0.203476 0.630579
vt 0.203476 0.086709
vt 0.523438 0.621586
vt 0.500001 1.000000
vt 0.750000 0.000000
vt 1.000000 0.000000
vt 0.750000 0.650000
vt 0.000000 0.000000
vt 0.250000 0.650000
vt 0.250000 0.000000
vt 0.638723 0.813096
vt 0.361277 0.813096
vt 0.000000 1.000000
vt 0.500000 0.000000
vt 0.298521 0.250000
vt 0.500000 0.250000
vt 0.298521 0.374529
vt 0.500000 0.750000
vt 0.500000 1.000000
vt 0.298521 0.750000
vt 0.298521 0.625471
vt 0.750000 1.000000
vt 0.000000 1.000000
vt 0.412657 0.860678
vt 0.141624 0.084984
vn 0.8260 -0.5636 0.0000
vn -0.6279 -0.7783 0.0000
vn 0.6279 -0.7783 0.0000
vn -0.8260 -0.5636 0.0000
vn 0.0000 1.0000 0.0000
vn 0.0000 0.0000 1.0000
vn -1.0000 0.0000 0.0000
vn 0.0000 -1.0000 0.0000
vn 1.0000 0.0000 0.0000
vn 0.0000 0.0000 -1.0000
usemtl Wall_KnightPlace
s off
f 17/1/1 1/2/1 4/3/1
f 15/4/2 3/5/2 5/6/2
f 16/7/3 4/3/3 3/8/3
f 21/9/4 5/6/4 2/10/4
f 10/11/5 8/12/5 6/13/5
f 8/14/6 12/15/6 16/16/6
f 12/17/7 11/18/7 13/19/7
f 11/20/8 7/21/8 14/22/8
f 6/23/9 9/24/9 7/25/9
f 10/26/10 7/27/10 11/28/10
f 5/29/6 14/30/6 20/31/6
f 2/32/6 20/31/6 22/33/6
f 14/30/6 4/34/6 18/35/6
f 2/10/7 23/36/7 21/9/7
f 1/2/9 25/37/9 24/38/9
f 18/35/6 1/39/6 24/40/6
f 17/1/1 19/41/1 1/2/1
f 15/4/2 16/7/2 3/5/2
f 16/7/3 17/1/3 4/3/3
f 21/9/4 15/4/4 5/6/4
f 10/11/5 12/42/5 8/12/5
f 23/43/6 9/44/6 21/45/6
f 9/44/6 8/14/6 21/45/6
f 12/15/6 13/46/6 19/47/6
f 13/46/6 25/48/6 19/47/6
f 15/49/6 21/45/6 8/14/6
f 12/15/6 19/47/6 17/50/6
f 16/16/6 15/49/6 8/14/6
f 12/15/6 17/50/6 16/16/6
f 12/17/7 10/51/7 11/18/7
f 7/21/8 9/52/8 22/53/8
f 9/52/8 23/54/8 22/53/8
f 22/53/8 20/55/8 7/21/8
f 20/55/8 14/22/8 7/21/8
f 25/56/8 13/57/8 24/58/8
f 13/57/8 11/20/8 24/58/8
f 14/22/8 18/59/8 11/20/8
f 18/59/8 24/58/8 11/20/8
f 6/23/9 8/60/9 9/24/9
f 10/26/10 6/61/10 7/27/10
f 5/29/6 3/62/6 14/30/6
f 2/32/6 5/29/6 20/31/6
f 14/30/6 3/62/6 4/34/6
f 2/10/7 22/63/7 23/36/7
f 1/2/9 19/41/9 25/37/9
f 18/35/6 4/34/6 1/39/6
