# Blender v2.90.0 OBJ File: 'Lamp02.blend'
# www.blender.org
mtllib Lamp02.mtl
o Lamp02_Sphere.001
v -0.000000 1.060788 -0.176560
v 0.603695 0.747208 -0.176560
v 1.000000 0.060788 -0.176560
v 0.338461 -0.848521 -0.176560
v 0.000000 -0.939212 -0.176560
v -0.000000 0.747208 0.427135
v 0.000000 0.060788 0.823440
v 0.000000 -0.848521 0.161902
v -0.603695 0.747208 -0.176560
v -1.000000 0.060788 -0.176560
v -0.338461 -0.848521 -0.176560
vt 0.060375 0.628830
vt 0.520539 0.337922
vt 0.501369 0.683195
vt 0.669158 0.036578
vt 0.673964 0.267749
vt 0.444287 0.090394
vt 0.169265 0.952757
vt 0.499204 0.914988
vt 0.340435 0.077914
vt 0.180356 0.212236
vt 0.188574 0.059482
vt 0.915336 0.679864
vt 0.896071 0.081001
vt 0.035612 0.061515
vt 0.896939 0.397046
vt 0.787418 0.361615
vt 0.778885 0.280928
vt 0.799760 0.934476
vt 0.339818 0.289789
vt 0.698872 0.318177
vt 0.809973 0.218615
vt 0.878830 0.208216
vt 0.952973 0.241170
vt 0.952973 0.356280
vt 0.930418 0.384170
vn -0.6288 -0.4575 0.6288
vn 0.4186 0.8059 0.4186
vn -0.6547 0.3780 0.6547
vn 0.2506 -0.9351 0.2506
vn 0.6288 -0.4575 0.6288
vn -0.4186 0.8059 0.4186
vn -0.2506 -0.9351 0.2506
vn -0.0000 -0.0000 -1.0000
vn 0.6547 0.3780 0.6547
usemtl Lamp02
s off
f 10/1/1 8/2/1 7/3/1
f 1/4/2 6/5/2 2/6/2
f 9/7/3 7/3/3 6/8/3
f 4/9/4 8/10/4 5/11/4
f 8/2/5 3/12/5 7/3/5
f 1/4/6 9/13/6 6/5/6
f 8/10/7 11/14/7 5/11/7
f 11/15/8 10/16/8 9/17/8
f 6/8/9 3/12/9 2/18/9
f 10/1/1 11/19/1 8/2/1
f 9/7/3 10/1/3 7/3/3
f 8/2/5 4/20/5 3/12/5
f 1/21/8 2/22/8 9/17/8
f 2/22/8 3/23/8 4/24/8
f 9/17/8 4/24/8 11/15/8
f 4/24/8 5/25/8 11/15/8
f 2/22/8 4/24/8 9/17/8
f 6/8/9 7/3/9 3/12/9
