# Blender v2.90.0 OBJ File: 'Table01.blend'
# www.blender.org
mtllib Table01.mtl
o Table01_Cube.001
v -1.072566 0.477398 1.885454
v -1.072566 0.700305 1.885454
v -1.072566 0.477398 -1.837692
v -1.072566 0.700305 -1.837692
v 1.072566 0.477398 1.885454
v 1.072566 0.700305 1.885454
v 1.072566 0.477398 -1.837692
v 1.072566 0.700305 -1.837692
v 0.951049 0.300992 0.265323
v 0.951049 0.502473 0.265323
v 0.951049 0.300992 -0.379880
v 0.951049 0.502473 -0.379880
v -0.951049 0.300992 0.265323
v -0.951049 0.502473 0.265323
v -0.951049 0.300992 -0.379880
v -0.951049 0.502473 -0.379880
v 0.687462 -1.102217 -1.311397
v -0.912538 0.504201 -1.311397
v 0.687462 -1.102217 -1.539455
v -0.912538 0.504201 -1.539455
v 1.093880 -1.102217 -1.311397
v -0.506121 0.504201 -1.311397
v 1.093880 -1.102217 -1.539455
v -0.506121 0.504201 -1.539455
v -0.687462 -1.102217 -1.272977
v 0.912538 0.504201 -1.272977
v -0.687462 -1.102217 -1.572268
v 0.912538 0.504201 -1.572268
v -1.093879 -1.102217 -1.272977
v 0.506121 0.504201 -1.272977
v -1.093879 -1.102217 -1.572268
v 0.506121 0.504201 -1.572268
v 0.951049 0.300992 -1.102825
v 0.951049 0.502473 -1.102825
v 0.951049 0.300992 -1.748027
v 0.951049 0.502473 -1.748027
v -0.951049 0.300992 -1.102825
v -0.951049 0.502473 -1.102825
v -0.951049 0.300992 -1.748027
v -0.951049 0.502473 -1.748027
v 0.687462 -1.102217 1.359160
v -0.912538 0.504201 1.359160
v 0.687462 -1.102217 1.587217
v -0.912538 0.504201 1.587217
v 1.093880 -1.102217 1.359160
v -0.506121 0.504201 1.359160
v 1.093880 -1.102217 1.587217
v -0.506121 0.504201 1.587217
v -0.687462 -1.102217 1.333293
v 0.912538 0.504201 1.333293
v -0.687462 -1.102217 1.622430
v 0.912538 0.504201 1.622430
v -1.093880 -1.102217 1.333293
v 0.506121 0.504201 1.333293
v -1.093880 -1.102217 1.622430
v 0.506121 0.504201 1.622430
v 0.951049 0.300992 1.150587
v 0.951049 0.502473 1.150587
v 0.951049 0.300992 1.795790
v 0.951049 0.502473 1.795790
v -0.951049 0.300992 1.150587
v -0.951049 0.502473 1.150587
v -0.951049 0.300992 1.795790
v -0.951049 0.502473 1.795790
v 0.687462 -1.102217 0.056750
v -0.912538 0.504201 0.056750
v 0.687462 -1.102217 -0.171308
v -0.912538 0.504201 -0.171308
v 1.093880 -1.102217 0.056750
v -0.506121 0.504201 0.056750
v 1.093880 -1.102217 -0.171308
v -0.506121 0.504201 -0.171308
v -0.687462 -1.102217 0.079502
v 0.912538 0.504201 0.079502
v -0.687462 -1.102217 -0.199679
v 0.912538 0.504201 -0.199679
v -1.093879 -1.102217 0.079502
v 0.506121 0.504201 0.079502
v -1.093879 -1.102217 -0.199679
v 0.506121 0.504201 -0.199679
vt 0.319100 0.055144
vt -2.648597 -0.122535
vt 0.319100 -0.122534
vt -2.648597 0.055142
vt -4.358458 -0.122537
vt 4.996704 0.055143
vt 2.028978 -0.122535
vt 4.996704 -0.122536
vt 2.028978 0.055144
vt -1.390758 1.769857
vt -4.358458 0.059983
vt -1.390758 0.059983
vt -1.390758 3.484570
vt -4.358458 1.774696
vt -1.390758 1.774696
vt -2.837466 -2.153692
vt -2.323181 -1.993093
vt -2.323180 -2.153692
vt -0.292742 -2.153692
vt 1.223416 -1.993093
vt 1.223416 -2.153692
vt -0.807030 -2.153692
vt -0.292742 -1.993093
vt -0.807030 -1.993093
vt -1.321316 -1.988254
vt -2.837467 -1.473966
vt -1.321315 -1.473966
vt -4.358458 -1.473966
vt -2.842306 -1.988254
vt -4.358458 -1.988254
vt 0.034641 3.484570
vt -0.147142 1.677328
vt 0.034640 1.677328
vt -0.376671 3.255959
vt -0.376670 1.448717
vt -0.558453 1.448717
vt 0.264169 3.255959
vt 0.264168 1.448717
vt 0.046875 -0.309159
vt -0.277079 -0.127375
vt -0.277079 -0.309159
vt -0.277079 -0.637951
vt -0.095295 -0.313998
vt -0.277079 -0.313998
vt -4.129848 -0.309162
vt -2.322609 -0.127375
vt -4.129848 -0.127378
vt -2.551220 -0.538687
vt -2.322609 -0.309159
vt -4.358458 -0.720473
vt -4.358458 -0.538690
vt -4.129848 -0.950001
vt -2.551220 -0.720473
vt 0.096166 -0.313998
vt 0.277950 -0.637951
vt 0.277950 -0.313998
vt 0.046875 -0.642790
vt -0.277079 -0.824573
vt 0.046875 -0.824573
vt 1.223411 -2.323970
vt 0.709122 -2.484569
vt 0.709122 -2.323969
vt -1.321318 -2.323969
vt -2.837467 -2.484569
vt -2.837467 -2.323970
vt -0.807029 -2.323970
vt -1.321318 -2.484570
vt -0.807029 -2.484569
vt 0.199677 -1.469127
vt -1.316476 -0.954839
vt 0.199677 -0.954840
vt -4.358458 -0.954839
vt -2.842306 -1.469127
vt -4.358459 -1.469127
vt 0.421321 0.471294
vt -1.385920 0.289511
vt 0.421321 0.289511
vt -1.157308 0.700823
vt -1.385920 0.471295
vt 0.649933 0.882606
vt 0.649933 0.700822
vt -1.157308 0.059983
vt 0.649932 0.059983
vt 0.316855 1.077779
vt 0.135072 1.401733
vt 0.135072 1.077779
vt 0.386298 -1.278793
vt 0.204515 -0.954840
vt 0.204515 -1.278793
vt -0.281918 -0.949998
vt -2.089159 -0.768216
vt -2.089159 -0.949998
vt -0.510528 -0.538687
vt -2.317770 -0.538689
vt -2.317770 -0.356905
vt -0.510528 -0.356903
vt -2.089159 -0.127377
vt 0.204515 -1.283631
vt 0.528468 -1.465415
vt 0.528468 -1.283631
vt 0.459025 0.891157
vt 0.135072 1.072941
vt 0.135072 0.891157
vt 1.223411 -2.319131
vt 0.709122 -2.158531
vt 1.223411 -2.158531
vt 0.709122 -2.319131
vt -0.807029 -2.158531
vt -0.807029 -2.319131
vt -1.321317 -2.158531
vt -1.321317 -2.319131
vt -2.837467 -2.158531
vt -1.385920 0.887444
vt 0.130233 1.401732
vt 0.130233 0.887444
vt -1.321315 -0.954839
vt -2.837467 -1.469127
vt -2.837467 -0.954840
vt 0.680319 3.484570
vt 0.498536 1.677328
vt 0.680319 1.677328
vt 0.269007 3.255959
vt 0.269009 1.448717
vt 1.091631 3.255959
vt 0.909847 1.448717
vt 1.091629 1.448717
vt 0.909847 3.255959
vt -0.090456 -0.637951
vt 0.091328 -0.313998
vt -0.090456 -0.313998
vt 0.051713 -0.642790
vt 0.375667 -0.824573
vt 0.375667 -0.642790
vt -0.563296 1.677330
vt -0.745077 3.484569
vt -0.745079 1.677331
vt -1.385918 1.677331
vt -1.156391 3.255958
vt -1.385919 3.484570
vt -0.974607 1.448720
vt -1.156391 1.448720
vt -0.974605 3.255959
vt 0.282789 -0.313998
vt 0.464573 -0.637951
vt 0.464573 -0.313998
vt 0.051713 -0.309159
vt 0.375667 -0.127375
vt 0.051713 -0.127375
vt -4.358459 0.055140
vt -4.358458 1.769857
vt -4.358458 3.484570
vt -2.837468 -1.993093
vt -2.837467 -1.988254
vt -2.842306 -1.473966
vt -0.147143 3.484570
vt -0.558455 3.255959
vt 0.046875 -0.127375
vt -0.095295 -0.637951
vt -2.322609 -0.950001
vt 0.096166 -0.637951
vt -0.277079 -0.642790
vt 1.223411 -2.484570
vt -1.316476 -1.469127
vt -2.842306 -0.954839
vt -1.157308 0.882605
vt 0.316855 1.401733
vt 0.386298 -0.954840
vt -0.281918 -0.768214
vt -0.281917 -0.127375
vt 0.204515 -1.465415
vt 0.459025 1.072940
vt -2.837468 -2.319131
vt -1.385919 1.401733
vt -1.321315 -1.469128
vt 0.498535 3.484570
vt 0.091328 -0.637951
vt 0.051713 -0.824573
vt -0.563293 3.484569
vt 0.282789 -0.637951
vt 0.375667 -0.309159
vn -1.0000 0.0000 0.0000
vn 0.0000 0.0000 -1.0000
vn 1.0000 0.0000 0.0000
vn 0.0000 0.0000 1.0000
vn 0.0000 -1.0000 0.0000
vn 0.0000 1.0000 0.0000
vn -0.7085 -0.7057 0.0000
vn 0.7085 0.7057 0.0000
vn 0.7085 -0.7057 0.0000
vn -0.7085 0.7057 0.0000
usemtl Wood_Table01
s off
f 2/1/1 3/2/1 1/3/1
f 4/4/2 7/5/2 3/2/2
f 8/6/3 5/7/3 7/8/3
f 6/9/4 1/3/4 5/7/4
f 7/10/5 1/11/5 3/12/5
f 4/13/6 6/14/6 8/15/6
f 11/16/3 10/17/3 9/18/3
f 15/19/2 12/20/2 11/21/2
f 13/22/1 16/23/1 15/19/1
f 9/18/4 14/24/4 13/22/4
f 9/25/5 15/26/5 11/27/5
f 14/28/6 12/29/6 16/30/6
f 18/31/7 19/32/7 17/33/7
f 19/32/2 24/34/2 23/35/2
f 24/34/8 21/36/8 23/35/8
f 22/37/4 17/33/4 21/38/4
f 23/39/5 17/40/5 19/41/5
f 20/42/6 22/43/6 24/44/6
f 27/45/9 26/46/9 25/47/9
f 27/45/2 32/48/2 28/49/2
f 29/50/10 32/48/10 31/51/10
f 25/52/4 30/53/4 29/50/4
f 25/54/5 31/55/5 27/56/5
f 30/57/6 28/58/6 32/59/6
f 35/60/3 34/61/3 33/62/3
f 39/63/2 36/64/2 35/65/2
f 37/66/1 40/67/1 39/63/1
f 33/62/4 38/68/4 37/66/4
f 33/69/5 39/70/5 35/71/5
f 38/72/6 36/73/6 40/74/6
f 43/75/7 42/76/7 41/77/7
f 43/75/4 48/78/4 44/79/4
f 45/80/8 48/78/8 47/81/8
f 41/77/2 46/82/2 45/83/2
f 41/84/5 47/85/5 43/86/5
f 46/87/6 44/88/6 48/89/6
f 50/90/9 51/91/9 49/92/9
f 51/91/4 56/93/4 55/94/4
f 56/93/10 53/95/10 55/94/10
f 54/96/2 49/97/2 53/95/2
f 55/98/5 49/99/5 51/100/5
f 52/101/6 54/102/6 56/103/6
f 58/104/3 59/105/3 57/106/3
f 60/107/4 63/108/4 59/105/4
f 64/109/1 61/110/1 63/108/1
f 62/111/2 57/112/2 61/110/2
f 63/113/5 57/114/5 59/115/5
f 60/116/6 62/117/6 64/118/6
f 66/119/7 67/120/7 65/121/7
f 67/120/2 72/122/2 71/123/2
f 72/124/8 69/125/8 71/126/8
f 70/127/4 65/121/4 69/125/4
f 71/128/5 65/129/5 67/130/5
f 68/131/6 70/132/6 72/133/6
f 75/134/9 74/135/9 73/136/9
f 75/137/2 80/138/2 76/139/2
f 77/140/10 80/138/10 79/141/10
f 73/136/4 78/142/4 77/140/4
f 73/143/5 79/144/5 75/145/5
f 78/146/6 76/147/6 80/148/6
f 2/1/1 4/4/1 3/2/1
f 4/4/2 8/149/2 7/5/2
f 8/6/3 6/9/3 5/7/3
f 6/9/4 2/1/4 1/3/4
f 7/10/5 5/150/5 1/11/5
f 4/13/6 2/151/6 6/14/6
f 11/16/3 12/152/3 10/17/3
f 15/19/2 16/23/2 12/20/2
f 13/22/1 14/24/1 16/23/1
f 9/18/4 10/17/4 14/24/4
f 9/25/5 13/153/5 15/26/5
f 14/28/6 10/154/6 12/29/6
f 18/31/7 20/155/7 19/32/7
f 19/32/2 20/155/2 24/34/2
f 24/34/8 22/156/8 21/36/8
f 22/37/4 18/31/4 17/33/4
f 23/39/5 21/157/5 17/40/5
f 20/42/6 18/158/6 22/43/6
f 27/45/9 28/49/9 26/46/9
f 27/45/2 31/51/2 32/48/2
f 29/50/10 30/53/10 32/48/10
f 25/52/4 26/159/4 30/53/4
f 25/54/5 29/160/5 31/55/5
f 30/57/6 26/161/6 28/58/6
f 35/60/3 36/162/3 34/61/3
f 39/63/2 40/67/2 36/64/2
f 37/66/1 38/68/1 40/67/1
f 33/62/4 34/61/4 38/68/4
f 33/69/5 37/163/5 39/70/5
f 38/72/6 34/164/6 36/73/6
f 43/75/7 44/79/7 42/76/7
f 43/75/4 47/81/4 48/78/4
f 45/80/8 46/165/8 48/78/8
f 41/77/2 42/76/2 46/82/2
f 41/84/5 45/166/5 47/85/5
f 46/87/6 42/167/6 44/88/6
f 50/90/9 52/168/9 51/91/9
f 51/91/4 52/168/4 56/93/4
f 56/93/10 54/96/10 53/95/10
f 54/96/2 50/169/2 49/97/2
f 55/98/5 53/170/5 49/99/5
f 52/101/6 50/171/6 54/102/6
f 58/104/3 60/107/3 59/105/3
f 60/107/4 64/109/4 63/108/4
f 64/109/1 62/111/1 61/110/1
f 62/111/2 58/172/2 57/112/2
f 63/113/5 61/173/5 57/114/5
f 60/116/6 58/174/6 62/117/6
f 66/119/7 68/175/7 67/120/7
f 67/120/2 68/175/2 72/122/2
f 72/124/8 70/127/8 69/125/8
f 70/127/4 66/119/4 65/121/4
f 71/128/5 69/176/5 65/129/5
f 68/131/6 66/177/6 70/132/6
f 75/134/9 76/178/9 74/135/9
f 75/137/2 79/141/2 80/138/2
f 77/140/10 78/142/10 80/138/10
f 73/136/4 74/135/4 78/142/4
f 73/143/5 77/179/5 79/144/5
f 78/146/6 74/180/6 76/147/6
